<?xml version="1.0" ?><svg xmlns="http://www.w3.org/2000/svg" xmlns:xlink="http://www.w3.org/1999/xlink" version="1.1" id="Layer_1" width="31.88" height="32" viewBox="0 0 1000 1000" style="enable-background:new 0 0 1000 1000;" xml:space="preserve"><style type="text/css">
	.st0{fill:#12131A;}
	.st1{fill:#ED892F;}
</style><g><g><g><path class="st1" d="M500,561.85c-34.18,0-61.85-27.67-61.85-61.85s27.67-61.85,61.85-61.85s61.85,27.67,61.85,61.85     S534.18,561.85,500,561.85z M500,477.21c-12.53,0-22.79,10.25-22.79,22.79c0,12.53,10.25,22.79,22.79,22.79     s22.79-10.25,22.79-22.79C522.79,487.47,512.53,477.21,500,477.21z"/></g><g><path class="st1" d="M347.97,561.85c-34.18,0-61.85-27.67-61.85-61.85s27.67-61.85,61.85-61.85s61.85,27.67,61.85,61.85     S382.15,561.85,347.97,561.85z M347.97,477.21c-12.53,0-22.79,10.25-22.79,22.79c0,12.53,10.25,22.79,22.79,22.79     s22.79-10.25,22.79-22.79C370.76,487.47,360.5,477.21,347.97,477.21z"/></g><g><path class="st1" d="M652.03,561.85c-34.18,0-61.85-27.67-61.85-61.85s27.67-61.85,61.85-61.85c34.18,0,61.85,27.67,61.85,61.85     S686.05,561.85,652.03,561.85z M652.03,477.21c-12.53,0-22.79,10.25-22.79,22.79c0,12.53,10.25,22.79,22.79,22.79     s22.79-10.25,22.79-22.79C674.82,487.47,664.57,477.21,652.03,477.21z"/></g></g><g><path class="st0" d="M500,848.34c-93.11,0-180.52-36.3-246.28-102.06S151.66,593.11,151.66,500s36.3-180.52,102.06-246.28    S406.89,151.66,500,151.66s180.52,36.3,246.28,102.06S848.34,406.89,848.34,500s-36.3,180.52-102.06,246.28    S593.11,848.34,500,848.34L500,848.34z M500,190.73c-170.59,0-309.27,138.69-309.27,309.27S329.41,809.27,500,809.27    S809.27,670.59,809.27,500S670.59,190.73,500,190.73z"/></g></g></svg>